<mxfile host="app.diagrams.net" modified="2023-04-24T10:00:54.701Z" agent="Mozilla/5.0 (Macintosh; Intel Mac OS X 10_15_7) AppleWebKit/537.36 (KHTML, like Gecko) Chrome/112.0.0.0 Safari/537.36" etag="1Wl1KT9WGkMiUcTF1K9l" version="21.2.1" type="github">
  <diagram name="第 1 页" id="lsf1Tn1yKAUuwyzkUpje">
    <mxGraphModel dx="1987" dy="-199" grid="1" gridSize="10" guides="1" tooltips="1" connect="1" arrows="1" fold="1" page="1" pageScale="1" pageWidth="1600" pageHeight="1200" math="0" shadow="0">
      <root>
        <mxCell id="0" />
        <mxCell id="1" parent="0" />
        <mxCell id="yyzTw-pzWx6IPQzIJ-rm-1" value="基础模块" style="rounded=0;whiteSpace=wrap;html=1;" vertex="1" parent="1">
          <mxGeometry x="30" y="1940" width="90" height="300" as="geometry" />
        </mxCell>
        <mxCell id="yyzTw-pzWx6IPQzIJ-rm-2" value="" style="rounded=0;whiteSpace=wrap;html=1;" vertex="1" parent="1">
          <mxGeometry x="150" y="1940" width="1390" height="300" as="geometry" />
        </mxCell>
        <mxCell id="yyzTw-pzWx6IPQzIJ-rm-3" value="" style="rounded=0;whiteSpace=wrap;html=1;dashed=1;" vertex="1" parent="1">
          <mxGeometry x="170" y="1960" width="310" height="260" as="geometry" />
        </mxCell>
        <mxCell id="yyzTw-pzWx6IPQzIJ-rm-4" value="通用筛选器" style="text;html=1;strokeColor=none;fillColor=none;align=center;verticalAlign=middle;whiteSpace=wrap;rounded=0;" vertex="1" parent="1">
          <mxGeometry x="292.5" y="1960" width="65" height="30" as="geometry" />
        </mxCell>
        <mxCell id="yyzTw-pzWx6IPQzIJ-rm-5" value="项目" style="rounded=0;whiteSpace=wrap;html=1;" vertex="1" parent="1">
          <mxGeometry x="200" y="2000" width="70" height="30" as="geometry" />
        </mxCell>
        <mxCell id="yyzTw-pzWx6IPQzIJ-rm-6" value="环境" style="rounded=0;whiteSpace=wrap;html=1;" vertex="1" parent="1">
          <mxGeometry x="290" y="2000" width="70" height="30" as="geometry" />
        </mxCell>
        <mxCell id="yyzTw-pzWx6IPQzIJ-rm-7" value="时间" style="rounded=0;whiteSpace=wrap;html=1;" vertex="1" parent="1">
          <mxGeometry x="377.5" y="2000" width="70" height="30" as="geometry" />
        </mxCell>
        <mxCell id="yyzTw-pzWx6IPQzIJ-rm-8" value="UserId" style="rounded=0;whiteSpace=wrap;html=1;" vertex="1" parent="1">
          <mxGeometry x="200" y="2050" width="70" height="30" as="geometry" />
        </mxCell>
        <mxCell id="yyzTw-pzWx6IPQzIJ-rm-9" value="DeviceId" style="rounded=0;whiteSpace=wrap;html=1;" vertex="1" parent="1">
          <mxGeometry x="290" y="2050" width="70" height="30" as="geometry" />
        </mxCell>
        <mxCell id="yyzTw-pzWx6IPQzIJ-rm-10" value="TraceId" style="rounded=0;whiteSpace=wrap;html=1;" vertex="1" parent="1">
          <mxGeometry x="377.5" y="2050" width="70" height="30" as="geometry" />
        </mxCell>
        <mxCell id="yyzTw-pzWx6IPQzIJ-rm-12" value="Version" style="rounded=0;whiteSpace=wrap;html=1;" vertex="1" parent="1">
          <mxGeometry x="200" y="2100" width="70" height="30" as="geometry" />
        </mxCell>
        <mxCell id="yyzTw-pzWx6IPQzIJ-rm-13" value="...." style="rounded=0;whiteSpace=wrap;html=1;" vertex="1" parent="1">
          <mxGeometry x="290" y="2100" width="70" height="30" as="geometry" />
        </mxCell>
        <mxCell id="yyzTw-pzWx6IPQzIJ-rm-14" value="" style="rounded=0;whiteSpace=wrap;html=1;dashed=1;" vertex="1" parent="1">
          <mxGeometry x="510" y="1960" width="340" height="260" as="geometry" />
        </mxCell>
        <mxCell id="yyzTw-pzWx6IPQzIJ-rm-15" value="全链路追踪" style="text;html=1;strokeColor=none;fillColor=none;align=center;verticalAlign=middle;whiteSpace=wrap;rounded=0;" vertex="1" parent="1">
          <mxGeometry x="645" y="1960" width="70" height="30" as="geometry" />
        </mxCell>
        <mxCell id="yyzTw-pzWx6IPQzIJ-rm-16" value="" style="rounded=0;whiteSpace=wrap;html=1;" vertex="1" parent="1">
          <mxGeometry x="530" y="2000" width="130" height="210" as="geometry" />
        </mxCell>
        <mxCell id="yyzTw-pzWx6IPQzIJ-rm-17" value="过滤器" style="text;html=1;strokeColor=none;fillColor=none;align=center;verticalAlign=middle;whiteSpace=wrap;rounded=0;" vertex="1" parent="1">
          <mxGeometry x="565" y="2000" width="60" height="30" as="geometry" />
        </mxCell>
        <mxCell id="yyzTw-pzWx6IPQzIJ-rm-18" value="追踪类型" style="rounded=0;whiteSpace=wrap;html=1;" vertex="1" parent="1">
          <mxGeometry x="540" y="2040" width="110" height="40" as="geometry" />
        </mxCell>
        <mxCell id="yyzTw-pzWx6IPQzIJ-rm-19" value="是否展示正常..." style="rounded=0;whiteSpace=wrap;html=1;" vertex="1" parent="1">
          <mxGeometry x="540" y="2090" width="110" height="40" as="geometry" />
        </mxCell>
        <mxCell id="yyzTw-pzWx6IPQzIJ-rm-20" value="...." style="rounded=0;whiteSpace=wrap;html=1;" vertex="1" parent="1">
          <mxGeometry x="540" y="2140" width="110" height="40" as="geometry" />
        </mxCell>
        <mxCell id="yyzTw-pzWx6IPQzIJ-rm-21" value="" style="rounded=0;whiteSpace=wrap;html=1;" vertex="1" parent="1">
          <mxGeometry x="700" y="2000" width="130" height="210" as="geometry" />
        </mxCell>
        <mxCell id="yyzTw-pzWx6IPQzIJ-rm-22" value="单个链路" style="text;html=1;strokeColor=none;fillColor=none;align=center;verticalAlign=middle;whiteSpace=wrap;rounded=0;" vertex="1" parent="1">
          <mxGeometry x="735" y="2000" width="60" height="30" as="geometry" />
        </mxCell>
        <mxCell id="yyzTw-pzWx6IPQzIJ-rm-23" value="时间" style="rounded=0;whiteSpace=wrap;html=1;" vertex="1" parent="1">
          <mxGeometry x="715" y="2030" width="105" height="30" as="geometry" />
        </mxCell>
        <mxCell id="yyzTw-pzWx6IPQzIJ-rm-24" value="类型" style="rounded=0;whiteSpace=wrap;html=1;" vertex="1" parent="1">
          <mxGeometry x="715" y="2070" width="105" height="30" as="geometry" />
        </mxCell>
        <mxCell id="yyzTw-pzWx6IPQzIJ-rm-25" value="状态" style="rounded=0;whiteSpace=wrap;html=1;" vertex="1" parent="1">
          <mxGeometry x="715" y="2110" width="105" height="30" as="geometry" />
        </mxCell>
        <mxCell id="yyzTw-pzWx6IPQzIJ-rm-26" value="描述" style="rounded=0;whiteSpace=wrap;html=1;" vertex="1" parent="1">
          <mxGeometry x="715" y="2150" width="105" height="30" as="geometry" />
        </mxCell>
      </root>
    </mxGraphModel>
  </diagram>
</mxfile>
